<svg xmlns="http://www.w3.org/2000/svg" viewBox="0 0 1200 430"><defs><linearGradient id="b" x2="1" y2="1"><stop stop-color="#111b58"/><stop offset=".5" stop-color="#3d197b"/><stop offset="1" stop-color="#0d315c"/></linearGradient><filter id="s"><feDropShadow dx="0" dy="10" stdDeviation="10" flood-opacity=".5"/></filter></defs><rect width="1200" height="430" rx="38" fill="url(#b)"/><g transform="translate(55 60)" filter="url(#s)"><rect x="20" y="100" width="230" height="190" rx="25" fill="#7d2de0"/><rect x="105" y="100" width="60" height="190" fill="#ffc93f"/><rect y="65" width="270" height="75" rx="22" fill="#a83af2"/><rect x="105" y="65" width="60" height="75" fill="#ffd95c"/><path d="M135 68Q65-30 28 50q43 20 107 18M135 68q70-98 107-18-43 20-107 18" fill="#ffcf48"/></g><g transform="translate(375 74)" filter="url(#s)"><circle cx="120" cy="120" r="112" fill="#ffcb3e" stroke="#fff1a0" stroke-width="8"/><path d="M120 8v224M8 120h224M41 41l158 158M199 41 41 199" stroke="#6f248c" stroke-width="12"/><circle cx="120" cy="120" r="30" fill="#e34b62"/></g><g transform="translate(710 65)" filter="url(#s)"><path d="M35 120h260v170H35z" fill="#d78417"/><path d="M25 120q140-120 280 0z" fill="#ffb83c" stroke="#ffe57e" stroke-width="8"/><path d="M35 120h260" stroke="#6b3613" stroke-width="12"/><circle cx="165" cy="205" r="28" fill="#ffe45f"/><g fill="#ffd23f"><circle cx="55" cy="315" r="28"/><circle cx="115" cy="326" r="28"/><circle cx="250" cy="315" r="28"/></g></g><text x="930" y="122" fill="#ffd95a" font-family="Trebuchet MS,Arial" font-size="45" font-weight="900">REWARDS</text><text x="930" y="175" fill="#fff" font-family="Arial" font-size="25" font-weight="800">DAILY • MISSIONS</text><text x="930" y="216" fill="#fff" font-family="Arial" font-size="25" font-weight="800">COSMETICS</text><text x="930" y="266" fill="#d9cfff" font-family="Arial" font-size="20">Earned coins only</text></svg>